<svg width="24" height="24" viewBox="0 0 24 24" fill="none" xmlns="http://www.w3.org/2000/svg"><path fill-rule="evenodd" clip-rule="evenodd" d="M12 3c2.0711 0 3.75 1.679 3.75 3.75 0 2.071-1.6789 3.75-3.75 3.75-2.071 0-3.75-1.679-3.75-3.75C8.25 4.679 9.929 3 12 3Zm0-1.5c-2.8995 0-5.25 2.3505-5.25 5.25S9.1005 12 12 12s5.25-2.3505 5.25-5.25S14.8995 1.5 12 1.5Zm7.5 21H18v-3.75a3.7503 3.7503 0 0 0-1.0983-2.6517A3.7503 3.7503 0 0 0 14.25 15h-4.5C7.679 15 6 16.6789 6 18.75v3.75H4.5v-3.75c0-2.8995 2.3505-5.25 5.25-5.25h4.5c2.8995 0 5.25 2.3505 5.25 5.25v3.75Z" fill="#0F1923"/></svg>