<svg width="220" height="40" viewBox="0 0 220 40" fill="none" xmlns="http://www.w3.org/2000/svg"><path d="M48.6854.688 37.8214 40h-2.744L24.3254 4.608 13.4054 40h-2.632L.0774.688h2.688l9.408 35.784L22.9814.688h2.8l10.696 36.008L45.9414.688h2.744ZM105.453 40h-2.52L79.8612 4.832V40h-2.52V.744h2.52L102.933 35.8V.744h2.52V40Zm32.144-2.24h21.056V40h-23.968v-2.128l20.664-34.888h-20.104V.688h23.016v2.184L137.597 37.76ZM198.853.688c6.645 0 11.76 1.736 15.344 5.208 3.621 3.472 5.432 8.3067 5.432 14.504s-1.811 11.0133-5.432 14.448C210.613 38.2827 205.498 40 198.853 40h-11.032V.688h11.032Zm0 37.184c5.936 0 10.453-1.5307 13.552-4.592 3.099-3.0987 4.648-7.392 4.648-12.88 0-5.5253-1.549-9.8373-4.648-12.936-3.099-3.0987-7.616-4.648-13.552-4.648h-8.512v35.056h8.512Z" fill="#0F1923"/></svg>