<?xml version="1.0" encoding="UTF-8" standalone="no"?>
<!-- Created with Inkscape (http://www.inkscape.org/) -->

<svg
   xmlns:dc="http://purl.org/dc/elements/1.1/"
   xmlns:cc="http://creativecommons.org/ns#"
   xmlns:rdf="http://www.w3.org/1999/02/22-rdf-syntax-ns#"
   xmlns:svg="http://www.w3.org/2000/svg"
   xmlns="http://www.w3.org/2000/svg"
   xmlns:sodipodi="http://sodipodi.sourceforge.net/DTD/sodipodi-0.dtd"
   xmlns:inkscape="http://www.inkscape.org/namespaces/inkscape"
   width="1000"
   height="134.67178"
   id="svg2"
   version="1.1"
   inkscape:version="0.48.5 r10040"
   sodipodi:docname="A.svg">
  <defs
     id="defs4" />
  <sodipodi:namedview
     id="base"
     pagecolor="#ffffff"
     bordercolor="#666666"
     borderopacity="1.0"
     inkscape:pageopacity="0.0"
     inkscape:pageshadow="2"
     inkscape:zoom="0.56875"
     inkscape:cx="563.73236"
     inkscape:cy="-48.229003"
     inkscape:document-units="px"
     inkscape:current-layer="layer1"
     showgrid="false"
     fit-margin-left="0.5"
     fit-margin-bottom="0.5"
     fit-margin-top="0.5"
     fit-margin-right="0.5"
     inkscape:window-width="1078"
     inkscape:window-height="1029"
     inkscape:window-x="836"
     inkscape:window-y="-12"
     inkscape:window-maximized="0">
    <inkscape:grid
       type="xygrid"
       id="grid2996"
       empspacing="5"
       visible="true"
       enabled="true"
       snapvisiblegridlinesonly="true"
       originx="-374.55222px"
       originy="-2249.4448px" />
  </sodipodi:namedview>
  <metadata
     id="metadata7">
    <rdf:RDF>
      <cc:Work
         rdf:about="">
        <dc:format>image/svg+xml</dc:format>
        <dc:type
           rdf:resource="http://purl.org/dc/dcmitype/StillImage" />
        <dc:title></dc:title>
      </cc:Work>
    </rdf:RDF>
  </metadata>
  <g
     inkscape:label="Layer 1"
     inkscape:groupmode="layer"
     id="layer1"
     transform="translate(-374.55222,1331.7544)">
    <g
       transform="matrix(3.931523,0,0,3.931523,362.8645,-1351.6983)"
       id="g3">
      <g
         id="g5">
        <g
           id="g7">
          <path
             inkscape:connector-curvature="0"
             d="m 7.1,22.2 c 0,7.7 5.5,13.4 12.7,13.4 6.7,0 10.1,-4.2 11.1,-6.2 h 3.8 c -1,3.2 -5.5,9.8 -14.9,9.8 -9.5,0 -16.7,-7.2 -16.7,-17 0,-9.7 7.3,-17 16.7,-17 9.4,0 14,6.5 15,9.8 H 30.9 C 29.7,12.9 26.4,8.7 19.8,8.7 12.6,8.7 7.1,14.4 7.1,22.2 z"
             id="path9" />
          <path
             inkscape:connector-curvature="0"
             d="M 54.8,28.6 H 41 l -3.8,9.9 H 33.4 L 46.1,5.7 h 3.7 l 12.7,32.9 h -3.9 l -3.8,-10 z M 53.5,25.3 47.9,10.6 42.3,25.3 h 11.2 z"
             id="path11" />
          <path
             inkscape:connector-curvature="0"
             d="M 80.9,38.6 H 64.5 V 5.7 h 3.9 V 35 H 81 l -0.1,3.6 0,0 z"
             id="path13" />
          <path
             inkscape:connector-curvature="0"
             d="M 91.6,38.6 H 88 L 75.7,5.7 h 4.1 l 10,27.6 10,-27.6 h 3.9 L 91.6,38.6 z"
             id="path15" />
          <path
             inkscape:connector-curvature="0"
             d="m 110,38.6 h -3.8 V 5.7 h 3.8 v 32.9 z"
             id="path17" />
          <path
             inkscape:connector-curvature="0"
             d="m 119.1,12.1 v 26.5 h -3.6 V 5.7 h 3.6 l 18.3,26.6 V 5.7 h 3.6 v 32.9 h -3.3 L 119.1,12.1 z"
             id="path19" />
          <path
             inkscape:connector-curvature="0"
             d="m 163.5,23.5 -4.2,4.7 v 10.4 h -3.8 V 5.7 h 3.8 V 23.2 L 174.7,5.7 h 4.6 l -13.2,14.8 13.2,18 h -4.4 l -11.4,-15 z"
             id="path21" />
          <path
             inkscape:connector-curvature="0"
             d="M 197.9,38.6 H 181.5 V 5.7 h 3.9 V 35 H 198 v 3.6 h -0.1 z"
             id="path23" />
          <path
             inkscape:connector-curvature="0"
             d="m 200.3,5.7 h 17.5 v 3.5 h -13.7 v 10.9 h 13.3 v 3.5 H 204.1 V 35 h 13.7 v 3.5 H 200.3 V 5.7 z"
             id="path25" />
          <path
             inkscape:connector-curvature="0"
             d="m 226.3,38.6 h -3.8 V 5.7 h 3.8 v 32.9 z"
             id="path27" />
          <path
             inkscape:connector-curvature="0"
             d="m 235.3,12.1 v 26.5 h -3.6 V 5.7 h 3.6 l 18.3,26.6 V 5.7 h 3.6 v 32.9 h -3.3 L 235.3,12.1 z"
             id="path29" />
        </g>
      </g>
    </g>
  </g>
</svg>
