<?xml version="1.0" encoding="UTF-8" standalone="no"?>
<svg
   xmlns:dc="http://purl.org/dc/elements/1.1/"
   xmlns:cc="http://creativecommons.org/ns#"
   xmlns:rdf="http://www.w3.org/1999/02/22-rdf-syntax-ns#"
   xmlns:svg="http://www.w3.org/2000/svg"
   xmlns="http://www.w3.org/2000/svg"
   xmlns:sodipodi="http://sodipodi.sourceforge.net/DTD/sodipodi-0.dtd"
   xmlns:inkscape="http://www.inkscape.org/namespaces/inkscape"
   width="2500"
   height="2500"
   viewBox="0 0 192.756 192.756"
   version="1.1"
   id="svg80"
   sodipodi:docname="dc-shoe-co-usa.svg"
   inkscape:version="1.0.1 (c497b03c, 2020-09-10)">
  <metadata
     id="metadata86">
    <rdf:RDF>
      <cc:Work
         rdf:about="">
        <dc:format>image/svg+xml</dc:format>
        <dc:type
           rdf:resource="http://purl.org/dc/dcmitype/StillImage" />
      </cc:Work>
    </rdf:RDF>
  </metadata>
  <defs
     id="defs84" />
  <sodipodi:namedview
     pagecolor="#ffffff"
     bordercolor="#666666"
     borderopacity="1"
     objecttolerance="10"
     gridtolerance="10"
     guidetolerance="10"
     inkscape:pageopacity="0"
     inkscape:pageshadow="2"
     inkscape:window-width="1332"
     inkscape:window-height="850"
     id="namedview82"
     showgrid="false"
     inkscape:zoom="0.15044117"
     inkscape:cx="963.9879"
     inkscape:cy="1283.4528"
     inkscape:window-x="0"
     inkscape:window-y="23"
     inkscape:window-maximized="0"
     inkscape:current-layer="svg80" />
  <path
     id="path72"
     style="clip-rule:evenodd;fill-rule:evenodd;stroke-width:12.9698"
     d="M 36.755859 100.67188 L 36.755859 2399.3281 L 2463.2441 2399.3281 L 2463.2441 100.67188 L 36.755859 100.67188 z M 267.51367 287.04688 L 615.42773 287.04688 C 768.08187 287.04688 839.0796 287.0472 1044.9746 343.8418 C 1252.6595 400.64937 1242.0098 436.16016 1242.0098 436.16016 C 1242.0098 436.16016 1373.3555 370.4819 1453.2363 349.18555 C 1533.1041 329.65308 1644.917 287.04688 1863.25 287.04688 L 2212.9531 287.04688 L 2212.9531 764.5293 L 1863.25 764.5293 L 1863.25 604.76758 C 1863.25 604.76758 1726.587 590.57842 1607.6543 620.74609 C 1486.9706 650.91377 1508.2539 659.78516 1508.2539 659.78516 C 1508.2539 659.78516 1671.5688 840.84356 1673.3457 1105.3359 C 1676.8864 1371.5793 1517.1504 1529.5625 1517.1504 1529.5625 C 1517.1504 1529.5625 1586.3575 1572.1689 1699.9727 1575.7227 C 1811.785 1577.4995 1863.2617 1575.7227 1863.2617 1575.7227 L 1863.2617 1371.5781 L 2212.9668 1371.5781 L 2212.9668 1914.7656 L 1863.2617 1914.7656 C 1762.0846 1914.7656 1547.3314 1897.0102 1446.1543 1857.9453 C 1344.9772 1818.9063 1242.0234 1758.5449 1242.0234 1758.5449 C 1242.0234 1758.5449 1139.069 1818.9055 991.73242 1866.8418 C 844.40886 1914.7651 615.42773 1914.7656 615.42773 1914.7656 L 267.51367 1914.7656 L 267.51367 1371.5781 L 615.42773 1371.5781 L 615.42773 1591.7148 C 615.42773 1591.7148 679.3182 1602.3491 775.17773 1593.4648 C 871.0243 1584.5935 972.1875 1547.332 972.1875 1547.332 C 972.1875 1547.332 801.79003 1385.7939 805.34375 1094.6875 C 807.12061 801.80427 956.22266 672.23633 956.22266 672.23633 C 956.22266 672.23633 915.40686 634.96166 801.80469 620.75977 C 689.97937 606.55787 615.42773 615.42773 615.42773 615.42773 L 615.42773 1178.1211 L 267.51367 1174.5684 L 267.51367 287.04688 z M 2042.5566 851.50391 L 2086.9395 982.875 L 2216.5078 934.92578 L 2140.1934 1050.3184 L 2259.0996 1123.0781 L 2120.6602 1135.5156 L 2140.1934 1272.2051 L 2042.5566 1172.7773 L 1946.709 1272.2051 L 1966.2422 1135.5156 L 1827.7773 1123.0781 L 1946.709 1050.3184 L 1870.3828 934.92578 L 1999.9512 982.875 L 2042.5566 851.50391 z M 1242.0234 862.15234 C 1227.8086 876.35424 1165.6838 963.32996 1163.9199 1085.8164 C 1162.1431 1206.526 1242.0234 1330.7754 1242.0234 1330.7754 C 1242.0234 1330.7754 1314.7835 1233.1525 1318.3242 1103.5586 C 1320.127 975.76749 1245.5772 869.24681 1242.0234 862.15234 z M 524.89844 2040.7539 L 551.51367 2040.7539 L 558.60742 2042.5312 L 565.71484 2046.0703 L 572.82227 2047.8477 L 578.14062 2051.3887 L 585.24805 2056.707 L 590.56445 2060.248 L 594.11914 2063.8145 L 595.89648 2067.3555 L 599.44922 2070.8945 L 601.21289 2076.2129 L 604.75391 2079.7539 L 606.53125 2085.0977 L 608.30859 2090.4141 L 611.86133 2101.0508 L 563.9375 2113.4883 L 562.14844 2104.5898 L 560.38477 2099.2734 L 556.83008 2093.9551 L 553.29102 2090.4141 L 549.73633 2088.6387 L 546.18359 2085.0977 L 540.86523 2083.2949 L 524.88672 2083.2949 L 521.33203 2085.0977 L 517.79102 2086.8477 L 516.00195 2086.8477 L 512.46094 2090.4141 L 510.68359 2092.1914 L 507.13086 2093.9688 L 505.36719 2097.5098 L 503.57617 2101.0508 L 501.8125 2104.5898 L 500.03711 2109.9336 L 498.27148 2115.252 L 498.27148 2120.5703 L 496.48242 2127.6641 L 496.48242 2141.8789 L 498.27148 2148.9727 L 498.27148 2154.291 L 500.03711 2161.4121 L 501.8125 2164.9512 L 503.57617 2170.2695 L 505.36719 2173.8105 L 507.13086 2175.5879 L 508.9082 2179.1289 L 512.44922 2180.9043 L 515.98828 2182.707 L 517.7793 2184.4844 L 521.32031 2186.2617 L 524.87305 2186.2617 L 528.41406 2188.0391 L 537.29883 2188.0391 L 542.61523 2186.2617 L 547.93359 2184.4844 L 551.48828 2180.918 L 553.27734 2179.1406 L 556.81836 2173.8242 L 560.37109 2168.5059 L 562.13477 2161.4121 L 565.72852 2149.0508 L 611.88672 2165.0293 L 608.33398 2177.4414 L 604.7793 2184.5625 L 603.01562 2191.6562 L 599.46289 2196.9746 L 595.9082 2202.3184 L 592.36719 2207.6094 L 587.03711 2211.1758 L 581.70703 2216.4941 L 576.38867 2220.0352 L 571.05859 2221.8105 L 565.72852 2225.3516 L 560.41016 2227.1289 L 553.31641 2228.9316 L 546.20898 2230.709 L 523.13477 2230.709 L 516.02734 2228.9316 L 507.15625 2227.1289 L 498.28516 2223.5879 L 491.17773 2220.0469 L 484.07031 2216.5078 L 478.75391 2211.1895 L 471.64453 2205.8711 L 466.31445 2198.752 L 460.99805 2191.6562 L 457.44336 2184.5625 L 453.89062 2175.666 L 450.34961 2166.793 L 448.57227 2157.8965 L 448.57227 2115.3301 L 450.34961 2106.4316 L 453.89062 2097.5605 L 457.44336 2088.6895 L 460.99805 2079.793 L 466.31445 2072.6973 L 471.64453 2065.6035 L 478.75391 2060.2598 L 484.07031 2054.9688 L 491.17773 2049.625 L 500.04883 2046.084 L 507.14453 2044.3066 L 516.01562 2042.5312 L 524.89844 2040.7539 z M 1932.4941 2040.8711 L 1957.2793 2040.8711 L 1964.375 2042.6465 L 1971.4941 2044.4238 L 1978.5898 2046.2012 L 1983.9062 2049.7422 L 1989.25 2051.5176 L 1994.5684 2056.8359 L 1999.8867 2060.377 L 2003.4258 2065.7207 L 2006.9668 2069.2617 L 2008.7695 2074.5781 L 2010.5215 2079.8965 L 2012.3242 2086.9902 L 2014.1016 2092.334 L 2014.1016 2104.7461 L 1967.9414 2108.3125 C 1966.1775 2102.969 1966.1778 2097.6384 1964.375 2094.0977 C 1964.375 2092.3208 1962.6368 2090.5582 1960.834 2088.7812 C 1960.834 2086.9914 1959.0698 2086.9912 1957.293 2085.2402 C 1955.5161 2085.2402 1953.7515 2083.4375 1951.9746 2083.4375 C 1950.1978 2083.4375 1946.6577 2083.4365 1944.8809 2081.6855 C 1941.3271 2081.6855 1937.7612 2081.6866 1935.9844 2083.4375 L 1930.666 2083.4375 C 1927.1253 2085.2403 1921.8082 2086.9786 1920.0312 2088.7812 C 1918.2545 2092.335 1918.2545 2094.0981 1920.0312 2095.875 C 1923.572 2099.4287 1927.1253 2101.1918 1930.666 2102.9688 C 1935.9836 2102.9687 1939.5373 2104.7329 1944.8809 2106.5098 L 1957.293 2110.0762 C 1966.1902 2111.853 1973.2713 2113.6311 1982.1426 2117.1719 L 1989.2637 2120.7129 L 1996.3574 2124.2539 L 2001.6758 2129.5957 L 2006.9941 2134.8887 L 2010.5332 2140.2324 L 2012.3359 2143.7715 L 2014.1133 2147.3125 L 2015.8652 2150.8535 L 2017.668 2154.3945 L 2019.4434 2163.291 L 2019.4434 2175.7031 L 2017.668 2179.2441 L 2017.668 2188.1289 L 2015.8652 2191.6699 L 2014.1133 2195.2109 L 2012.3359 2198.752 L 2010.5332 2202.3184 L 2006.9941 2205.8594 L 2005.2168 2209.4004 L 2001.6758 2212.9395 L 1998.1348 2214.7168 L 1994.5938 2218.2578 L 1991.0273 2220.0352 L 1987.4863 2221.8105 L 1983.9453 2223.5879 L 1980.4062 2225.3652 L 1975.0879 2227.1426 L 1969.7695 2228.9453 L 1960.873 2228.9453 L 1950.2383 2230.7227 L 1936.0234 2230.7227 L 1927.1523 2228.9453 L 1920.0566 2228.9453 L 1912.9375 2227.1426 L 1905.8418 2223.6016 L 1900.5254 2221.8242 L 1895.207 2218.2832 L 1889.8633 2214.7422 L 1884.5723 2209.4258 L 1881.0059 2204.082 L 1877.4648 2198.7637 L 1873.9238 2193.4473 L 1872.1465 2188.1289 L 1868.6055 2181.0078 L 1868.6055 2173.9141 L 1865.0645 2159.7246 L 1912.9492 2154.459 L 1914.752 2165.1211 L 1916.5039 2170.4375 L 1918.3066 2175.7559 L 1921.8477 2181.0742 L 1925.3867 2182.877 L 1928.9277 2186.418 L 1934.2461 2186.418 L 1941.3672 2188.1934 L 1953.7793 2188.1934 L 1959.0957 2186.418 L 1962.6621 2184.6406 L 1967.9805 2179.2969 L 1969.7578 2177.5195 C 1971.5347 2173.9788 1971.5217 2170.4385 1969.7578 2166.8848 C 1967.9939 2163.3311 1962.6624 2161.5679 1959.0957 2159.791 L 1955.5547 2157.9863 C 1943.1426 2156.2354 1930.7055 2152.656 1920.0703 2149.1152 L 1912.9492 2147.3398 L 1907.6328 2143.7988 L 1902.3145 2142.0215 L 1898.7734 2140.2441 L 1895.2324 2136.7031 L 1891.6914 2134.9004 L 1886.3477 2129.6094 L 1882.8086 2126.043 L 1879.2676 2120.7246 L 1877.4902 2117.1836 L 1875.7129 2111.8672 L 1873.9355 2106.5234 L 1873.9355 2101.2051 L 1872.1602 2094.1113 L 1872.1602 2090.5703 L 1873.9355 2083.4492 L 1875.7129 2076.3555 L 1879.2539 2069.2617 L 1881.0312 2067.4844 L 1882.8086 2063.9434 L 1886.3477 2060.377 L 1888.1504 2058.625 L 1891.6914 2055.0859 L 1895.2324 2053.2832 L 1898.7734 2049.7422 L 1905.8672 2046.2012 L 1912.9629 2044.4238 L 1921.8594 2042.6465 L 1932.4941 2040.8711 z M 281.7168 2042.5566 L 356.26562 2042.5566 C 363.37307 2042.5566 368.69091 2044.334 374.02148 2044.334 L 382.89258 2046.1094 C 386.44629 2046.1094 390.00097 2047.8865 393.55469 2049.6504 L 397.0957 2051.4277 L 400.64844 2053.2051 L 407.73047 2058.5488 L 411.28516 2062.0879 L 416.61523 2067.4062 L 421.93164 2074.5 L 427.26367 2081.6211 L 430.80273 2090.4922 L 434.35742 2099.3633 L 436.13477 2108.2617 L 437.91211 2118.8965 L 437.91211 2152.6055 L 436.13477 2163.2656 L 434.35742 2172.1367 L 430.80273 2181.0078 L 427.26367 2189.9062 L 423.72266 2193.4473 L 421.94531 2198.7637 L 418.39258 2202.3301 L 414.85156 2205.8711 L 409.5332 2211.1895 L 404.20312 2214.7305 L 397.10742 2220.0469 L 390.01367 2221.8242 L 382.90625 2225.3652 C 379.35253 2225.3652 374.03418 2227.1426 370.48047 2227.1426 L 281.7168 2227.1426 L 281.7168 2042.5566 z M 1703.5 2042.5566 L 1703.5273 2042.5566 L 1751.4492 2042.5566 L 1751.4492 2168.584 C 1751.4492 2170.3608 1753.2266 2173.9009 1753.2266 2175.6777 C 1755.0034 2177.4546 1755.0037 2179.2188 1756.7676 2179.2188 L 1762.0859 2184.5625 L 1765.625 2186.3398 L 1769.1934 2186.3398 L 1776.2871 2188.1152 L 1785.1582 2188.1152 C 1786.961 2186.3384 1788.6996 2186.3398 1792.2793 2186.3398 L 1795.8203 2184.5625 C 1797.5972 2182.7856 1799.3594 2180.9956 1799.3594 2179.2188 L 1802.9004 2175.6777 C 1802.9004 2170.3601 1804.6777 2166.8059 1804.6777 2161.4883 L 1804.6777 2042.5566 L 1852.6016 2042.5566 L 1852.6016 2147.2734 C 1852.6016 2156.1707 1852.6011 2163.2537 1850.8242 2172.125 C 1850.8242 2175.6657 1850.8237 2180.9958 1849.0469 2184.5625 L 1847.2715 2191.6562 L 1845.4941 2198.752 L 1841.9531 2204.0684 L 1838.3867 2209.4121 L 1833.0684 2214.7305 L 1827.752 2218.2715 L 1822.4336 2221.8105 L 1815.3125 2225.3516 L 1811.7715 2227.1289 L 1802.9004 2228.9316 L 1794.0039 2230.709 L 1772.7207 2230.709 C 1767.4031 2230.709 1762.0598 2230.7085 1756.7422 2228.9316 L 1751.4238 2228.9316 L 1747.8828 2227.1289 L 1744.3418 2225.3516 L 1735.4453 2223.5762 L 1730.127 2218.2578 L 1724.8105 2214.7168 L 1719.4668 2211.1758 C 1717.7159 2207.6091 1715.9253 2205.8584 1714.1484 2202.3047 C 1712.3716 2200.5019 1710.6089 2196.9624 1708.832 2195.1855 L 1707.0547 2188.0898 C 1705.2778 2184.5491 1705.2773 2180.9704 1705.2773 2177.4297 C 1703.5005 2172.1121 1703.5 2166.7942 1703.5 2161.4766 L 1703.5 2042.5566 z M 2086.9258 2042.5703 L 2131.2832 2042.5703 L 2205.8457 2227.1543 L 2154.3691 2227.1543 L 2138.416 2188.1152 L 2079.8184 2188.1152 L 2065.6289 2227.1543 L 2014.1523 2227.1543 L 2086.9258 2042.5703 z M 1057.3984 2044.334 C 1084.0254 2044.334 1105.3357 2051.4275 1121.3145 2067.4062 C 1135.5034 2083.3592 1144.3867 2106.4451 1144.3867 2136.6387 C 1144.3867 2165.0295 1135.5034 2186.3396 1121.3145 2202.3184 C 1105.3487 2220.048 1084.0254 2227.1426 1057.3984 2227.1426 C 1032.5484 2227.1426 1011.2522 2220.0471 995.27344 2204.0684 C 979.30766 2186.3387 972.20117 2165.0425 972.20117 2136.6387 C 972.20117 2118.8831 973.99099 2102.8925 979.30859 2090.4805 A 113.8486 113.8486 0 0 1 997.06445 2067.4062 C 1004.1589 2060.2858 1011.2524 2054.9944 1020.1367 2051.4277 C 1030.7719 2046.1101 1043.2095 2044.334 1057.3984 2044.334 z M 1595.2559 2044.334 C 1612.9855 2044.334 1627.1987 2047.8737 1639.6367 2054.9941 C 1653.8256 2063.8655 1662.6843 2074.5 1669.8047 2088.7148 C 1676.8991 2102.9038 1680.4414 2118.8831 1680.4414 2136.6387 C 1680.4414 2154.3683 1676.8991 2170.3606 1669.8047 2184.5625 A 75.393243 75.393243 0 0 1 1639.6367 2216.5078 C 1625.4219 2223.6023 1611.2216 2227.1426 1595.2559 2227.1426 C 1579.2771 2227.1426 1563.2851 2223.6018 1550.873 2214.7305 A 75.393243 75.393243 0 0 1 1520.7051 2182.7852 A 101.48841 101.48841 0 0 1 1510.0703 2138.416 C 1510.0703 2108.2483 1518.9417 2085.1753 1534.8945 2069.1836 C 1550.8733 2051.428 1570.3799 2044.334 1595.2559 2044.334 z M 697.125 2044.3457 C 718.42135 2044.3457 736.17604 2047.8864 746.82422 2058.5605 C 757.4724 2067.4319 764.56836 2081.6338 764.56836 2097.5996 L 729.07031 2099.377 C 727.30642 2090.5056 723.75244 2083.3974 718.42188 2079.8438 C 713.10426 2074.5261 705.99583 2072.75 695.34766 2072.75 C 686.46337 2072.75 677.60596 2076.2899 672.27539 2079.8438 C 668.73464 2083.3844 665.17969 2086.9392 665.17969 2090.5059 C 665.17969 2095.8235 666.958 2099.3767 670.51172 2101.1406 C 675.82932 2104.6814 686.47752 2110.0374 704.24609 2113.5781 C 721.98873 2117.1189 734.41259 2122.4495 743.29688 2125.9902 A 63.603727 63.603727 0 0 1 762.83008 2143.7461 C 768.14768 2152.6174 769.92383 2161.5015 769.92383 2172.1367 C 769.92383 2182.7979 766.38261 2191.669 761.03906 2200.5273 C 755.72146 2209.4246 746.85109 2216.5073 737.9668 2221.8379 C 727.33159 2225.3786 714.89281 2227.1543 698.91406 2227.1543 C 675.84085 2227.1543 658.09865 2221.8383 647.4375 2211.2031 C 634.96059 2202.3318 627.85303 2186.3391 626.07617 2166.8066 L 659.81055 2163.2656 C 661.5874 2175.6777 666.90575 2182.7976 672.23633 2188.1152 C 679.33079 2195.2097 688.20213 2196.9883 698.86328 2196.9883 C 711.28832 2196.9883 718.3828 2195.2102 725.49023 2189.8926 C 730.82081 2184.575 734.375 2179.2312 734.375 2172.1367 C 734.375 2168.596 732.61084 2165.0427 730.83398 2161.502 C 727.29324 2159.7251 723.73829 2156.1837 716.63086 2154.3809 C 713.09011 2152.604 704.20727 2150.8408 688.22852 2147.2871 C 668.70902 2141.9695 656.28343 2136.6511 647.41211 2129.5566 C 636.76393 2118.8955 631.44531 2106.4589 631.44531 2094.0469 C 631.44531 2083.3857 634.99902 2076.2912 638.55273 2067.4199 A 57.300421 57.300421 0 0 1 661.62695 2049.6641 C 670.49827 2046.1233 682.92311 2044.3457 697.125 2044.3457 z M 1415.9355 2044.3457 C 1433.6912 2044.3457 1447.9056 2047.8865 1460.3438 2056.7578 C 1472.7558 2065.6551 1481.6272 2079.8305 1485.168 2095.8223 L 1462.0938 2101.1406 C 1458.553 2088.7286 1453.2236 2078.0676 1444.3652 2072.75 C 1437.2708 2067.4324 1426.6084 2063.8789 1415.9473 2063.8789 C 1401.7583 2063.8789 1391.0981 2067.4194 1380.4629 2072.75 C 1371.5916 2079.8445 1366.2732 2088.7288 1360.9297 2099.377 C 1357.3889 2111.815 1355.6133 2122.4493 1355.6133 2134.8613 C 1355.6133 2149.0762 1359.1528 2161.5157 1362.7324 2173.9277 C 1368.05 2184.5889 1373.3674 2193.4597 1384.0156 2198.7773 C 1392.9129 2204.0949 1403.5484 2207.6484 1414.1836 2207.6484 C 1426.6216 2207.6484 1437.283 2204.1076 1446.1543 2195.2363 C 1456.7895 2188.1159 1462.1084 2177.4541 1465.6621 2161.4883 L 1488.7344 2168.584 C 1483.4168 2188.1165 1474.5454 2202.3316 1462.1074 2212.9668 C 1449.6954 2221.8381 1433.7158 2227.1543 1415.9473 2227.1543 C 1396.4407 2227.1543 1380.4628 2223.614 1368.0508 2216.5195 C 1357.3896 2207.6223 1346.742 2196.9866 1341.3984 2181.0078 C 1334.304 2166.8189 1332.5273 2150.8413 1332.5273 2134.8496 C 1332.5273 2115.3431 1336.0671 2099.3647 1343.1875 2085.1758 C 1350.282 2072.7378 1359.1406 2062.1023 1373.3555 2055.0078 C 1385.7935 2047.8874 1399.9827 2044.3457 1415.9355 2044.3457 z M 800.02734 2046.1094 L 835.52539 2046.1094 L 835.52539 2117.1191 L 906.52148 2117.1191 L 906.52148 2046.1094 L 942.0332 2046.1094 L 942.0332 2223.6152 L 906.52148 2223.6152 L 906.52148 2147.2871 L 835.52539 2147.2871 L 835.52539 2223.6152 L 800.02734 2223.6152 L 800.02734 2223.6016 L 800.02734 2046.1094 z M 1172.791 2046.1094 L 1304.1367 2046.1094 L 1304.1367 2076.2773 L 1208.2754 2076.2773 L 1208.2754 2115.3418 L 1297.041 2115.3418 L 1297.041 2145.5098 L 1208.2754 2145.5098 L 1208.2754 2195.2109 L 1307.6758 2195.2109 L 1307.6758 2223.6016 L 1172.791 2223.6016 L 1172.791 2046.1094 z M 1595.2422 2063.8652 C 1579.2634 2063.8652 1565.0747 2069.1831 1552.6367 2081.6211 C 1540.2117 2092.2563 1534.8945 2111.7891 1534.8945 2138.416 C 1534.8945 2159.7253 1540.2124 2175.6772 1552.6504 2188.1152 C 1563.2856 2200.5273 1577.5003 2207.623 1595.2559 2207.623 C 1612.9855 2207.623 1627.1987 2200.5273 1639.6367 2188.1152 C 1650.2719 2175.6772 1655.5898 2157.9228 1655.5898 2134.8496 C 1655.5898 2120.6607 1653.8137 2108.249 1648.4961 2097.5879 C 1644.9294 2086.9267 1637.8357 2078.0539 1627.1875 2072.7363 A 61.437776 61.437776 0 0 0 1595.2422 2063.8652 z M 1057.3984 2074.5 C 1043.2095 2074.5 1030.7717 2079.8176 1021.9004 2088.7148 C 1013.042 2099.3501 1009.4766 2115.3431 1009.4766 2134.8496 C 1009.4766 2156.1849 1013.0291 2170.3596 1021.9004 2181.0078 C 1032.5486 2191.669 1043.2095 2196.9883 1057.3984 2196.9883 C 1071.6003 2196.9883 1084.0252 2191.669 1092.8965 2181.0078 C 1101.7808 2170.3726 1107.0996 2156.1849 1107.0996 2134.8496 C 1107.0996 2115.3431 1101.7808 2099.363 1092.8965 2088.7148 C 1084.0122 2079.8176 1073.3772 2074.5 1057.3984 2074.5 z M 329.65234 2085.1621 L 329.65234 2186.3398 C 340.30052 2186.3398 350.96168 2186.3394 363.38672 2184.5625 L 366.92773 2184.5625 C 370.48145 2182.7856 372.25878 2182.7859 375.8125 2180.9961 L 381.14258 2175.6777 C 386.46018 2166.8064 388.22461 2156.1709 388.22461 2145.5098 C 390.01444 2133.0977 390.01465 2120.6606 386.46094 2110.0254 L 384.68359 2104.6816 C 382.90674 2101.1409 381.14334 2097.5876 379.35352 2094.0469 C 377.58963 2092.27 375.81201 2092.2697 374.03516 2090.5059 C 372.2583 2088.729 368.70459 2088.7293 366.92773 2086.9395 L 361.60938 2086.9395 C 350.94822 2085.1626 340.30052 2085.1621 329.65234 2085.1621 z M 2108.2227 2110.0254 L 2095.8105 2147.2871 L 2122.4375 2147.2871 L 2108.2227 2110.0254 z "
     transform="scale(0.0771024)" />
</svg>
