<svg id="Layer_1" xmlns="http://www.w3.org/2000/svg" viewBox="-141 238.2 558.1 120.1"><style>.st0{fill:#231f20;stroke:#231f20;stroke-width:9.375e-2}</style><path class="st0" d="M-141 238.3h37.8c13.5.8 27.6 4.9 37.2 15 11.2 11.6 14.7 28.4 14.5 44-.2 16.4-3.6 34-15 46.5-8.5 9.5-21.2 13.9-33.7 14.5H-141v-120m28.7 21.8v76.4c7 .2 14.8-.2 20.3-5.1 8.1-7.3 9.8-18.9 10.4-29.2.5-12.2-.4-25.9-9-35.4-5.4-6.1-14-7.1-21.7-6.7zM7.5 238.3h28.6c0 16.4.1 32.8 0 49.2 12.7-16.2 24.8-32.9 37.4-49.2h29.7l-33.3 42.9c-.6 1-1.9 1.7-1.9 3 14 24.7 27.8 49.5 41.8 74.1H78.9c-9.5-17.2-19.1-34.3-28.6-51.5-5 5.6-9.3 11.9-14.1 17.8-.2 11.2 0 22.5-.1 33.7H7.2l.3-.9c-.1-39.7-.1-79.4 0-119.1zM163.9 238.3h24.8c12.9 23.1 25.9 46.3 38.8 69.4.5.7 1.3 1.9 1.8 2.5-.1-23.9-.1-47.9 0-71.9H254v120h-24.7c-13.4-23.7-26.7-47.6-40.1-71.3l-.7-.7c.3 24 0 48 .2 72h-24.8v-120zM310.4 238.3h30.3c7.4 16.4 16.1 32.5 23.8 48.8.3 0 .8 0 1-.1 7.9-16.3 16.1-32.5 24.3-48.7H416l1 .2c-13 25-25.9 50-38.9 75v44.8h-28.9c.5-14.9.1-30 .2-44.9-13-25-25.9-50.1-39-75.1z"/></svg>