<?xml version="1.0" encoding="UTF-8" standalone="no"?>
<svg
   xmlns:dc="http://purl.org/dc/elements/1.1/"
   xmlns:cc="http://creativecommons.org/ns#"
   xmlns:rdf="http://www.w3.org/1999/02/22-rdf-syntax-ns#"
   xmlns:svg="http://www.w3.org/2000/svg"
   xmlns="http://www.w3.org/2000/svg"
   xmlns:sodipodi="http://sodipodi.sourceforge.net/DTD/sodipodi-0.dtd"
   xmlns:inkscape="http://www.inkscape.org/namespaces/inkscape"
   width="2500"
   height="2500"
   viewBox="0 0 192.756 192.756"
   version="1.1"
   id="svg45"
   sodipodi:docname="ray-ban.svg"
   inkscape:version="1.0.1 (c497b03c, 2020-09-10)">
  <metadata
     id="metadata51">
    <rdf:RDF>
      <cc:Work
         rdf:about="">
        <dc:format>image/svg+xml</dc:format>
        <dc:type
           rdf:resource="http://purl.org/dc/dcmitype/StillImage" />
      </cc:Work>
    </rdf:RDF>
  </metadata>
  <defs
     id="defs49" />
  <sodipodi:namedview
     pagecolor="#ffffff"
     bordercolor="#666666"
     borderopacity="1"
     objecttolerance="10"
     gridtolerance="10"
     guidetolerance="10"
     inkscape:pageopacity="0"
     inkscape:pageshadow="2"
     inkscape:window-width="1141"
     inkscape:window-height="824"
     id="namedview47"
     showgrid="false"
     inkscape:zoom="0.2171134"
     inkscape:cx="1191.8661"
     inkscape:cy="1195.0268"
     inkscape:window-x="0"
     inkscape:window-y="23"
     inkscape:window-maximized="0"
     inkscape:current-layer="svg45" />
  <path
     d="m 186.342,69.908 a 3.5885,3.5885 0 1 0 0,7.177 3.583,3.583 0 0 0 3.58,-3.598 3.58,3.58 0 0 0 -3.58,-3.579 z m 0,6.745 a 3.154,3.154 0 0 1 -3.156,-3.166 3.149,3.149 0 0 1 3.156,-3.146 3.146,3.146 0 0 1 3.146,3.146 3.15,3.15 0 0 1 -3.146,3.166 z"
     id="path37"
     style="clip-rule:evenodd;fill-rule:evenodd" />
  <path
     d="m 188.186,72.548 c 0,-0.338 -0.15,-0.695 -0.451,-0.864 -0.301,-0.178 -0.639,-0.197 -0.979,-0.197 h -1.746 v 4.011 h 0.488 v -1.851 h 0.902 l 1.145,1.851 h 0.584 l -1.213,-1.851 c 0.715,-0.019 1.27,-0.31 1.27,-1.099 z m -1.936,0.714 h -0.752 v -1.418 h 1.146 c 0.498,0 1.043,0.075 1.043,0.695 10e-4,0.817 -0.875,0.723 -1.437,0.723 z M 66.195,132.675 42.81,121.256 c -0.514,-0.266 -0.779,-0.946 -0.769,-1.391 l 0.062,-6.304 c 0.009,-0.444 0.097,-0.9 0.68,-1.318 2.5,-1.594 10.242,-5.879 18.24,-17.552 10.652,-15.547 0,-28.609 -16.648,-25.053 C 29.589,72.796 14.536,80.802 8.007,85.155 2.188,89.034 2.996,93.721 2.835,97.924 3.158,99.701 3.805,99.54 5.26,97.762 16.089,87.741 32.576,80.144 35.647,78.851 c 3.071,-1.293 10.345,-5.657 18.912,-3.718 8.229,1.864 6.229,13.052 3.717,17.78 -2.748,5.172 -10.587,12.688 -14.143,14.547 -1.351,0.706 -1.858,0 -1.858,-1.132 l 0.566,-24.326 c 0,-1.616 -0.728,-2.344 -2.344,-1.778 l -2.586,1.293 c -1.778,1.051 -1.697,1.455 -1.859,2.748 l -0.392,28.044 c -0.013,0.605 -0.295,1.091 -0.628,1.234 l -8.436,4.745 c -1.939,0.97 -1.455,2.425 0,2.91 l 6.789,3.232 c 1.617,0.646 2.102,1.131 2.102,2.747 l -0.243,13.578 c 6.062,-1.212 6.465,-4.122 6.627,-6.062 v -4.122 c 0.161,-0.97 0.727,-1.293 1.535,-1.131 l 19.719,9.536 c 1.778,0.809 2.748,0.484 4.041,-1.777 1.292,-2.261 1.454,-3.392 -0.971,-4.524 z m 34.461,-34.257 c -2.74,1.582 -4.008,4.543 -2.928,6.412 1.078,1.87 4.338,2.184 7.08,0.6 2.742,-1.583 3.928,-4.463 2.848,-6.332 -1.078,-1.869 -4.258,-2.264 -7,-0.68 z"
     id="path39"
     style="clip-rule:evenodd;fill-rule:evenodd" />
  <path
     d="m 90.545,100.43 c -0.745,0.908 -2.182,3.678 -2.99,5.375 -0.808,1.696 -2.505,5.535 -4.202,5.535 -1.794,0 -2.021,-4.444 -2.021,-6.061 0,-1.617 -0.97,-1.859 -1.455,-1.778 -0.485,0.081 -1.859,0.565 -2.263,2.263 -0.404,1.697 -2.586,9.052 -5.011,9.052 -1.535,0 -2.667,-4.445 -2.747,-5.819 -0.081,-1.373 -0.728,-2.505 -2.102,-2.505 -0.97,0 -2.182,0.485 -2.667,1.051 -0.485,0.566 -0.565,1.454 -3.152,0.889 -2.344,-0.081 -4.607,1.132 -7.354,5.738 -1.654,2.773 -2.998,7.941 -0.485,10.021 2.344,1.939 6.465,-1.536 7.678,-2.991 1.212,-1.454 2.263,-2.505 2.748,-3.312 0.484,-0.809 0.97,-0.728 1.212,0.08 0.242,0.809 1.616,3.96 3.395,3.88 1.778,-0.081 4.041,-1.455 6.708,-6.143 0.485,-0.97 1.212,-0.889 1.374,-0.081 0.162,0.809 1.212,3.476 2.99,3.476 1.697,0 3.585,-2.696 4.526,-4.283 0.646,-1.091 1.616,-0.565 1.616,0.485 0,1.05 -0.485,25.861 -0.485,25.861 0,1.131 0.444,1.454 1.252,1.454 h 3.516 c 0.646,0 1.212,-0.565 1.212,-1.454 l 0.727,-40.207 c 0.001,-0.971 -1.09,-1.657 -2.02,-0.526 z m -27.477,15.84 c -0.728,1.213 -2.667,4.445 -4.364,3.88 -0.889,-0.485 0.296,-3.718 0.889,-4.849 0.889,-1.697 3.495,-4.4 4.687,-3.718 1.132,0.646 -0.485,3.475 -1.212,4.687 z M 186.207,91.482 c -0.322,0.283 -0.848,0.768 -2.02,0.242 -2.021,-0.808 -2.182,-4.606 -3.232,-8.082 -0.945,-3.122 -3.219,-2.926 -4.041,-1.495 l -2.465,3.96 c -0.445,0.808 -1.414,2.667 -2.385,2.667 -1.131,0 -0.625,-1.617 -0.564,-3.233 0.039,-1.091 -0.648,-2.464 -1.779,-2.464 -1.293,0 -2.666,1.979 -3.717,4.243 -0.734,1.583 -2.627,7.637 -5.012,7.637 -1.535,0 -1.697,-4.445 -1.777,-5.819 -0.08,-1.374 -0.566,-3.071 -1.939,-3.071 -0.93,0 -1.535,0.484 -2.021,1.05 -0.484,0.566 -0.564,1.05 -2.262,0.808 -2.344,-0.081 -6.223,2.102 -8.971,6.708 -1.654,2.773 -3.645,8.588 -1.131,10.668 2.344,1.939 6.545,-2.587 7.758,-4.041 1.211,-1.455 2.262,-2.506 2.748,-3.313 0.484,-0.809 0.969,-0.728 1.211,0.081 0.242,0.808 1.617,3.96 3.395,3.879 1.779,-0.081 3.232,-0.485 5.9,-5.173 0.484,-0.969 1.373,-1.09 1.535,-0.282 0.162,0.808 0.324,2.95 2.021,2.95 2.908,0 6.205,-7.079 7.031,-8.729 0.727,-1.455 1.898,-1.051 2.303,0.04 0.578,1.562 1.09,6.587 4.242,6.587 3.152,0 5.293,-3.354 5.939,-4.405 0.729,-1.049 0.35,-2.39 -0.767,-1.413 z m -34.266,4.849 c -0.727,1.212 -2.344,3.879 -4.041,3.313 -0.889,-0.485 0.215,-2.828 0.809,-3.96 0.889,-1.697 3.494,-4.439 4.688,-3.758 1.13,0.647 -0.729,3.192 -1.456,4.405 z m -15.613,-4.236 c 0,0 -6.869,-5.011 -8.809,-7.273 -1.303,-1.52 -0.404,-2.667 0.404,-3.313 4.848,-3.233 12.445,-8.244 15.436,-16.002 2.881,-7.478 -1.617,-13.981 -4.85,-15.032 -4.43,-1.439 -13.82,1.455 -18.508,10.183 -3.035,5.653 -4.443,7.516 -4.848,22.871 -0.078,2.908 -0.162,6.223 -0.162,9.86 0,3.637 -0.404,13.496 -0.809,15.354 -1.535,4.364 3.072,1.778 5.172,0.082 2.102,-1.698 1.939,-4.243 1.939,-5.334 0,-1.375 0.082,-25.619 0.809,-31.034 0.453,-3.368 0.971,-9.617 4.525,-15.032 3.557,-5.415 7.193,-3.232 8.164,-2.344 0.969,0.889 2.344,3.152 1.615,7.759 -1.129,7.149 -9.375,14.951 -11.477,17.375 -2.1,2.424 -1.615,4.526 -0.402,6.223 0.861,1.207 2.99,3.556 5.172,5.738 2.182,2.182 1.939,4.122 1.617,5.577 -1.133,4.363 -12.932,16.163 -12.932,16.163 -2.506,2.667 0.08,7.031 0.969,8.485 0.891,1.455 2.021,0.971 2.748,-0.242 2.91,-5.414 15.436,-18.507 15.436,-18.507 3.641,-4.607 2.104,-9.052 -1.209,-11.557 z"
     id="path41"
     style="clip-rule:evenodd;fill-rule:evenodd" />
</svg>
