<?xml version="1.0" encoding="UTF-8" standalone="no"?>
<svg
   xmlns:dc="http://purl.org/dc/elements/1.1/"
   xmlns:cc="http://creativecommons.org/ns#"
   xmlns:rdf="http://www.w3.org/1999/02/22-rdf-syntax-ns#"
   xmlns:svg="http://www.w3.org/2000/svg"
   xmlns="http://www.w3.org/2000/svg"
   xmlns:sodipodi="http://sodipodi.sourceforge.net/DTD/sodipodi-0.dtd"
   xmlns:inkscape="http://www.inkscape.org/namespaces/inkscape"
   width="2500"
   height="2500"
   viewBox="0 0 192.744 192.744"
   version="1.1"
   id="svg16"
   sodipodi:docname="the-north-face.svg"
   inkscape:version="1.0.1 (c497b03c, 2020-09-10)">
  <metadata
     id="metadata22">
    <rdf:RDF>
      <cc:Work
         rdf:about="">
        <dc:format>image/svg+xml</dc:format>
        <dc:type
           rdf:resource="http://purl.org/dc/dcmitype/StillImage" />
      </cc:Work>
    </rdf:RDF>
  </metadata>
  <defs
     id="defs20" />
  <sodipodi:namedview
     pagecolor="#ffffff"
     bordercolor="#666666"
     borderopacity="1"
     objecttolerance="10"
     gridtolerance="10"
     guidetolerance="10"
     inkscape:pageopacity="0"
     inkscape:pageshadow="2"
     inkscape:window-width="1261"
     inkscape:window-height="842"
     id="namedview18"
     showgrid="false"
     inkscape:zoom="0.2916"
     inkscape:cx="1250"
     inkscape:cy="1250"
     inkscape:window-x="0"
     inkscape:window-y="23"
     inkscape:window-maximized="0"
     inkscape:current-layer="svg16" />
  <path
     d="m 119.305,64.872 v -3.816 h -15.266 v 20.952 h 15.266 v -3.456 h -11.018 v -5.688 h 9.649 V 69.12 h -9.649 v -4.248 z m -4.248,19.296 v 8.064 h -8.354 v -8.064 h -4.318 v 20.881 h 4.318 v -9.361 h 8.354 v 9.361 h 4.248 V 84.168 Z m 4.248,26.783 v -3.742 h -15.266 v 21.238 h 15.266 v -3.814 h -11.018 v -5.617 h 9.649 v -3.455 h -9.649 v -4.61 z M 101.592,61.056 h -4.248 v 8.064 h -8.352 v -8.064 h -4.248 v 20.952 h 4.248 v -9.36 h 8.352 v 9.36 h 4.248 z m -35.136,0 v 3.816 h 6.48 v 17.136 h 4.248 V 64.872 h 6.48 V 61.056 Z M 53.064,83.592 c -6.696,0 -10.224,3.816 -10.224,11.016 0,7.56 3.528,11.304 10.224,11.304 6.696,0 10.152,-3.744 10.152,-11.304 0,-7.2 -3.456,-11.016 -10.152,-11.016 z m -5.616,11.016 c 0,-4.824 1.872,-7.2 5.616,-7.2 4.032,0 5.904,2.376 5.904,7.2 0,5.113 -1.872,7.56 -5.904,7.56 -3.744,0 -5.616,-2.447 -5.616,-7.56 z M 36.72,84.168 v 14.76 l -8.352,-14.76 h -4.536 v 20.881 h 4.032 V 90.36 l 8.568,14.689 h 4.536 V 84.168 Z m 19.8,31.68 v -4.897 h 10.728 v -3.742 H 52.272 v 21.238 h 4.248 v -8.855 h 9.432 v -3.744 z M 100.801,87.912 V 84.168 H 83.664 v 3.744 h 6.408 v 17.137 h 4.32 V 87.912 Z m -26.569,9.145 c 1.368,0 2.448,0.215 2.952,0.791 l 0.792,7.201 H 82.8 v -0.504 c -0.504,-0.289 -0.792,-1.584 -0.792,-4.033 0,-2.951 -1.08,-4.536 -2.664,-5.328 2.16,-0.864 3.24,-2.448 3.24,-5.112 0,-3.744 -2.16,-5.904 -6.696,-5.904 H 65.376 v 20.881 h 4.32 v -7.992 z m -4.536,-3.529 v -5.616 h 5.328 c 2.16,0 3.24,0.792 3.24,2.664 0,1.872 -1.08,2.952 -3.456,2.952 z m 7.488,13.681 h -5.112 l -7.488,21.238 h 4.536 l 1.656,-4.607 h 7.776 l 1.296,4.607 h 4.608 z m -2.664,4.822 2.664,8.354 h -5.328 z m 23.617,2.16 h 4.248 c -0.217,-1.871 -0.793,-3.455 -2.09,-4.824 -1.871,-1.584 -4.031,-2.664 -6.983,-2.664 -2.952,0 -5.112,1.08 -6.984,2.953 -1.584,1.871 -2.664,4.535 -2.664,8.064 0,7.488 3.168,11.23 9.36,11.23 5.4,0 8.351,-2.664 9.361,-7.775 h -4.248 c -0.576,2.447 -2.449,3.744 -4.825,3.744 -3.528,0 -5.112,-2.375 -5.112,-6.984 0,-5.039 1.584,-7.488 5.112,-7.488 2.376,0 3.745,1.369 4.825,3.744 z M 44.712,128.16 h 0.072 z m 0.072,0 c 0.72,0 1.296,-0.289 1.729,-0.648 0.36,-0.432 0.647,-1.008 0.647,-1.799 0,-0.865 -0.288,-1.441 -0.647,-1.801 -0.432,-0.359 -1.008,-0.576 -1.729,-0.576 h -0.072 c -0.864,0 -1.44,0.217 -1.8,0.576 -0.359,0.359 -0.576,0.936 -0.576,1.801 v 0.07 c 0,0.721 0.216,1.297 0.576,1.729 0.36,0.359 0.937,0.648 1.8,0.648 z m -0.072,0.576 c -1.008,0 -1.728,-0.359 -2.232,-0.865 -0.504,-0.504 -0.72,-1.223 -0.72,-2.088 v -0.07 c 0,-1.01 0.216,-1.729 0.72,-2.232 0.504,-0.504 1.224,-0.721 2.232,-0.721 h 0.072 c 0.864,0 1.584,0.217 2.088,0.721 0.504,0.504 0.864,1.223 0.864,2.232 0,0.936 -0.36,1.654 -0.864,2.158 a 2.921,2.921 0 0 1 -2.088,0.865 z M 45,125.424 h 0.072 c 0.288,0 0.432,-0.145 0.432,-0.504 v -0.072 c 0,0 -0.072,0 -0.072,-0.072 -0.072,-0.072 -0.216,-0.072 -0.432,-0.072 h -0.792 v 0.721 H 45 Z m 0.504,0.504 0.576,0.721 c 0.072,0.143 0,0.287 -0.072,0.359 -0.144,0.145 -0.36,0.072 -0.432,0 L 44.856,126 h -0.648 v 0.791 c 0,0.145 -0.144,0.289 -0.288,0.289 -0.144,0 -0.288,-0.145 -0.288,-0.289 v -2.375 c 0,-0.145 0.144,-0.287 0.288,-0.287 h 1.152 c 0.288,0 0.576,0.07 0.72,0.215 0.072,0.072 0.144,0.072 0.144,0.145 0.144,0.145 0.144,0.287 0.144,0.432 0,0.575 -0.144,0.862 -0.576,1.007 z m 76.752,-64.872 c 13.393,0 24.984,4.896 34.344,14.256 9.648,9.648 14.473,21.168 14.473,34.631 v 18.504 h -19.584 v -19.08 c 0,-7.486 -2.664,-13.967 -8.064,-19.295 -1.297,-1.368 -2.664,-2.448 -4.248,-3.528 -4.32,-2.952 -9.432,-4.248 -14.76,-4.248 h -2.16 v -21.24 z m 27.359,67.391 h -15.264 v -14.76 c 0,-2.447 -0.791,-4.32 -2.447,-5.904 -1.584,-1.654 -3.744,-2.447 -5.904,-2.447 h -3.744 V 84.168 h 2.16 c 5.615,0 10.439,1.584 14.76,4.824 1.08,0.504 2.16,1.584 2.951,2.376 5.113,5.113 7.488,11.017 7.488,18 z m -17.135,0 H 122.255 V 107.209 H 126 c 1.656,0 3.24,0.574 4.607,1.871 1.08,1.08 1.873,2.736 1.873,4.607 z"
     id="path12"
     style="clip-rule:evenodd;fill-rule:evenodd" />
</svg>
