<svg width="24" height="24" viewBox="0 0 24 24" fill="none" xmlns="http://www.w3.org/2000/svg">
<path d="M6.07056 16.459C6.07056 16.459 6.88256 14.822 8.06456 14.822C9.24656 14.822 9.85056 16.197 11.1606 16.197C12.4696 16.197 13.9386 12.749 15.4226 12.749C16.9046 12.749 17.9706 15.14 17.9706 15.14" stroke="#D6DBE1" stroke-width="1.5" stroke-linecap="round" stroke-linejoin="round"/>
<path fill-rule="evenodd" clip-rule="evenodd" d="M10.1392 9.10487C10.1392 9.96487 9.44217 10.6629 8.58117 10.6629C7.72117 10.6629 7.02417 9.96487 7.02417 9.10487C7.02417 8.24487 7.72117 7.54688 8.58117 7.54688C9.44217 7.54788 10.1392 8.24487 10.1392 9.10487Z" stroke="#D6DBE1" stroke-width="1.5" stroke-linecap="round" stroke-linejoin="round"/>
<path fill-rule="evenodd" clip-rule="evenodd" d="M2.75024 12C2.75024 18.937 5.06324 21.25 12.0002 21.25C18.9372 21.25 21.2502 18.937 21.2502 12C21.2502 5.063 18.9372 2.75 12.0002 2.75C5.06324 2.75 2.75024 5.063 2.75024 12Z" stroke="#D6DBE1" stroke-width="1.5" stroke-linecap="round" stroke-linejoin="round"/>
</svg>
