<svg width="171" height="32" viewBox="0 0 171 32" fill="none" xmlns="http://www.w3.org/2000/svg">
<path d="M15.6888 27.674C22.3078 27.674 27.6735 22.3082 27.6735 15.6892C27.6735 9.07022 22.3078 3.70447 15.6888 3.70447C9.0698 3.70447 3.70405 9.07022 3.70405 15.6892C3.70405 22.3082 9.0698 27.674 15.6888 27.674Z" stroke="#009FFA" stroke-width="2" stroke-linecap="round" stroke-linejoin="round"/>
<path d="M24.0244 24.6472L28.7231 29.3336" stroke="#009FFA" stroke-width="2" stroke-linecap="round" stroke-linejoin="round"/>
<path d="M47.312 19.888C47.312 20.992 47.912 21.824 49.112 22.384C50.328 22.928 52.424 23.2 55.4 23.2C57.8 23.2 59.528 22.984 60.584 22.552C61.64 22.12 62.168 21.472 62.168 20.608C62.168 19.984 61.976 19.528 61.592 19.24C61.224 18.936 60.536 18.712 59.528 18.568C58.536 18.424 56.92 18.28 54.68 18.136C52.216 17.992 50.272 17.744 48.848 17.392C47.424 17.04 46.368 16.512 45.68 15.808C45.008 15.088 44.672 14.112 44.672 12.88C44.672 11.136 45.52 9.888 47.216 9.136C48.912 8.384 51.352 8.008 54.536 8.008C57.736 8.008 60.232 8.488 62.024 9.448C63.816 10.408 64.72 11.824 64.736 13.696H61.448C61.448 12.96 61.2 12.376 60.704 11.944C60.224 11.496 59.448 11.168 58.376 10.96C57.304 10.752 55.888 10.648 54.128 10.648C52.528 10.648 51.28 10.736 50.384 10.912C49.488 11.088 48.856 11.352 48.488 11.704C48.136 12.04 47.96 12.48 47.96 13.024C47.96 13.584 48.144 14.016 48.512 14.32C48.88 14.624 49.536 14.864 50.48 15.04C51.424 15.2 52.864 15.344 54.8 15.472C57.504 15.664 59.544 15.88 60.92 16.12C62.312 16.344 63.416 16.792 64.232 17.464C65.048 18.12 65.456 19.112 65.456 20.44C65.456 22.472 64.568 23.88 62.792 24.664C61.032 25.448 58.576 25.84 55.424 25.84C51.776 25.84 48.984 25.392 47.048 24.496C45.128 23.584 44.112 22.048 44 19.888H47.312Z" fill="white"/>
<path d="M78.0052 23.224C79.7172 23.224 81.0372 23.008 81.9652 22.576C82.9092 22.144 83.5812 21.528 83.9812 20.728H87.2212C86.7892 22.344 85.7652 23.6 84.1492 24.496C82.5332 25.392 80.4772 25.84 77.9812 25.84C74.9732 25.84 72.5732 25.216 70.7812 23.968C68.9892 22.704 68.0932 20.84 68.0932 18.376C68.0932 16.728 68.5092 15.344 69.3412 14.224C70.1892 13.104 71.3412 12.272 72.7972 11.728C74.2532 11.168 75.9012 10.888 77.7412 10.888C80.7172 10.888 83.0772 11.528 84.8212 12.808C86.5652 14.088 87.4372 16.192 87.4372 19.12H71.3572C71.5172 20.544 72.1492 21.584 73.2532 22.24C74.3732 22.896 75.9572 23.224 78.0052 23.224ZM77.7412 13.456C74.2692 13.456 72.2052 14.528 71.5492 16.672H84.0052C83.7012 15.568 83.0212 14.76 81.9652 14.248C80.9252 13.72 79.5172 13.456 77.7412 13.456Z" fill="white"/>
<path d="M99.9639 10.888C102.012 10.888 103.692 11.12 105.004 11.584C106.316 12.048 107.308 12.816 107.98 13.888C108.668 14.96 109.02 16.4 109.036 18.208V25.36H106.036V23.632C104.388 24.32 102.82 24.856 101.332 25.24C99.8599 25.624 98.2759 25.816 96.5799 25.816C94.3719 25.816 92.7079 25.424 91.5879 24.64C90.4839 23.84 89.9319 22.632 89.9319 21.016C89.9319 19.304 90.7159 18.056 92.2839 17.272C93.8519 16.488 95.8999 16.096 98.4279 16.096C100.892 16.096 103.428 16.472 106.036 17.224C106.004 15.736 105.324 14.744 103.996 14.248C102.684 13.736 101.244 13.48 99.6759 13.48C98.5399 13.48 97.3719 13.568 96.1719 13.744C94.9879 13.92 93.6679 14.24 92.2119 14.704L91.1079 12.328C92.6439 11.848 94.1159 11.488 95.5239 11.248C96.9479 11.008 98.4279 10.888 99.9639 10.888ZM97.4919 23.224C98.5799 23.224 99.9079 23.032 101.476 22.648C103.06 22.248 104.58 21.776 106.036 21.232V19.72C104.884 19.384 103.708 19.12 102.508 18.928C101.324 18.72 100.028 18.616 98.6199 18.616C96.9079 18.616 95.5719 18.808 94.6119 19.192C93.6519 19.576 93.1719 20.184 93.1719 21.016C93.1719 21.88 93.5319 22.464 94.2519 22.768C94.9719 23.072 96.0519 23.224 97.4919 23.224Z" fill="white"/>
<path d="M122.612 10.888C123.94 10.888 125.204 11.064 126.404 11.416V14.104C125.124 13.768 123.884 13.6 122.684 13.6C121.58 13.6 120.492 13.8 119.42 14.2C118.348 14.584 117.116 15.32 115.724 16.408V25.36H112.724V11.368H115.724V13.864C116.828 12.744 117.924 11.968 119.012 11.536C120.116 11.104 121.316 10.888 122.612 10.888Z" fill="white"/>
<path d="M128.492 18.376C128.492 15.912 129.372 14.048 131.132 12.784C132.892 11.52 135.268 10.888 138.26 10.888C140.852 10.888 142.956 11.384 144.572 12.376C146.204 13.352 147.22 14.808 147.62 16.744H144.356C144.036 15.656 143.38 14.848 142.388 14.32C141.396 13.792 140.02 13.528 138.26 13.528C133.892 13.528 131.708 15.144 131.708 18.376C131.708 21.592 133.892 23.2 138.26 23.2C140.02 23.2 141.396 22.936 142.388 22.408C143.38 21.88 144.036 21.08 144.356 20.008H147.62C147.22 21.944 146.204 23.4 144.572 24.376C142.956 25.352 140.852 25.84 138.26 25.84C135.268 25.84 132.892 25.216 131.132 23.968C129.372 22.704 128.492 20.84 128.492 18.376Z" fill="white"/>
<path d="M162.396 10.888C164.972 10.888 166.964 11.48 168.372 12.664C169.78 13.848 170.5 15.752 170.532 18.376V25.36H167.532V19.048C167.532 17.176 167.084 15.8 166.188 14.92C165.308 14.024 163.78 13.576 161.604 13.576C159.332 13.576 157.508 14.104 156.132 15.16C154.756 16.216 154.068 17.76 154.068 19.792V25.36H151.068V6.16H154.068V14.488C154.98 13.304 156.116 12.408 157.476 11.8C158.836 11.192 160.476 10.888 162.396 10.888Z" fill="white"/>
</svg>
