<svg width="200" height="148" viewBox="0 0 200 148" fill="none" xmlns="http://www.w3.org/2000/svg"><circle cx="100" cy="74" r="72" fill="#EDF0F2"></circle><circle cx="172" cy="4" r="3" stroke="#D6DBE1" stroke-width="2"></circle><circle cx="196.5" cy="57.5" r="1.5" fill="#D6DBE1"></circle><circle cx="3.5" cy="93.5" r="1.5" fill="#D6DBE1"></circle><circle cx="27.5" cy="144.5" r="2.5" stroke="#D6DBE1" stroke-width="2"></circle><path d="M7 124V118" stroke="#D6DBE1" stroke-width="2" stroke-linecap="round"></path><path d="M4 121H10" stroke="#D6DBE1" stroke-width="2" stroke-linecap="round"></path><path d="M193.364 31.1213L189.121 26.8787" stroke="#D6DBE1" stroke-width="2" stroke-linecap="round"></path><path d="M189.121 31.1213L193.364 26.8787" stroke="#D6DBE1" stroke-width="2" stroke-linecap="round"></path><rect x="23.0673" y="29.1357" width="130" height="78" rx="3" transform="rotate(-4 23.0673 29.1357)" fill="white" stroke="#D6DBE1" stroke-width="2"></rect><rect x="34.8076" y="39.3416" width="80" height="8" rx="1" transform="rotate(-4 34.8076 39.3416)" fill="#D6DBE1"></rect><rect x="45.8301" y="53.6075" width="48" height="4" rx="1" transform="rotate(-4 45.8301 53.6075)" fill="#D6DBE1"></rect><rect x="35.7847" y="53.3074" width="6" height="6" rx="3" transform="rotate(-4 35.7847 53.3074)" fill="#D6DBE1"></rect><rect x="37.877" y="83.2344" width="48" height="4" rx="1" transform="rotate(-4 37.877 83.2344)" fill="#D6DBE1"></rect><rect x="38.4351" y="91.2149" width="96" height="4" rx="1" transform="rotate(-4 38.4351 91.2149)" fill="#D6DBE1"></rect><rect x="46.6294" y="50.5064" width="130" height="78" rx="3" fill="white" stroke="#D6DBE1" stroke-width="2"></rect><rect x="57.6294" y="61.5064" width="80" height="8" rx="1" fill="#D6DBE1"></rect><rect x="67.6294" y="76.5064" width="48" height="4" rx="1" fill="#D6DBE1"></rect><rect x="57.6294" y="75.5064" width="6" height="6" rx="3" fill="#D6DBE1"></rect><rect x="57.6294" y="105.506" width="48" height="4" rx="1" fill="#D6DBE1"></rect><rect x="57.6294" y="113.506" width="96" height="4" rx="1" fill="#D6DBE1"></rect></svg>