<svg width="600" height="134" viewBox="0 0 600 134" fill="none" xmlns="http://www.w3.org/2000/svg">
<path d="M59.2104 23.6867C57.8111 23.6867 56.4691 24.242 55.4796 25.2304C54.4901 26.2187 53.9342 27.5592 53.9342 28.9569V51.209C53.9342 52.6068 54.4901 53.9473 55.4796 54.9357C56.4691 55.924 57.8111 56.4792 59.2104 56.4792C60.6097 56.4792 61.9518 55.924 62.9412 54.9357C63.9307 53.9473 64.4866 52.6068 64.4866 51.209V28.9569C64.4866 27.5592 63.9307 26.2187 62.9412 25.2304C61.9518 24.242 60.6097 23.6867 59.2104 23.6867Z" fill="#009FFA"/>
<path d="M43.3819 36.5695C41.9825 36.5695 40.6406 37.1248 39.6511 38.1132C38.6616 39.1015 38.1057 40.442 38.1057 41.8397V64.0918C38.1057 65.4896 38.6616 66.8301 39.6511 67.8184C40.6406 68.8068 41.9825 69.362 43.3819 69.362C44.7812 69.362 46.1232 68.8068 47.1127 67.8184C48.1022 66.8301 48.658 65.4896 48.658 64.0918V41.8397C48.658 40.442 48.1022 39.1015 47.1127 38.1132C46.1232 37.1248 44.7812 36.5695 43.3819 36.5695Z" fill="#009FFA"/>
<path d="M75.0389 48.8667C73.6396 48.8667 72.2976 49.422 71.3081 50.4104C70.3187 51.3987 69.7627 52.7392 69.7627 54.1369V76.389C69.7627 77.7867 70.3187 79.1273 71.3081 80.1156C72.2976 81.104 73.6396 81.6592 75.0389 81.6592C76.4382 81.6592 77.7803 81.104 78.7698 80.1156C79.7592 79.1273 80.3151 77.7867 80.3151 76.389V54.1369C80.3151 52.7392 79.7592 51.3987 78.7698 50.4104C77.7803 49.422 76.4382 48.8667 75.0389 48.8667Z" fill="#009FFA"/>
<path d="M59.2104 61.7495C57.8111 61.7495 56.4691 62.3048 55.4796 63.2931C54.4901 64.2815 53.9342 65.622 53.9342 67.0197V89.2718C53.9342 90.6695 54.4901 92.0101 55.4796 92.9984C56.4691 93.9868 57.8111 94.542 59.2104 94.542C60.6097 94.542 61.9518 93.9868 62.9412 92.9984C63.9307 92.0101 64.4866 90.6695 64.4866 89.2718V67.0197C64.4866 65.622 63.9307 64.2815 62.9412 63.2931C61.9518 62.3048 60.6097 61.7495 59.2104 61.7495Z" fill="#009FFA"/>
<path d="M90.8674 57.1527C89.4681 57.1527 88.1261 57.708 87.1367 58.6963C86.1472 59.6847 85.5913 61.0252 85.5913 62.4229V68.1031C85.5913 69.5008 86.1472 70.8413 87.1367 71.8297C88.1261 72.818 89.4681 73.3733 90.8674 73.3733C92.2668 73.3733 93.6088 72.818 94.5983 71.8297C95.5878 70.8413 96.1436 69.5008 96.1436 68.1031V62.4229C96.1436 61.0252 95.5878 59.6847 94.5983 58.6963C93.6088 57.708 92.2668 57.1527 90.8674 57.1527Z" fill="#009FFA"/>
<path d="M27.5534 44.8555C26.154 44.8555 24.812 45.4108 23.8226 46.3991C22.8331 47.3875 22.2772 48.728 22.2772 50.1257V55.8059C22.2772 57.2036 22.8331 58.5441 23.8226 59.5325C24.812 60.5208 26.154 61.0761 27.5534 61.0761C28.9527 61.0761 30.2947 60.5208 31.2842 59.5325C32.2737 58.5441 32.8295 57.2036 32.8295 55.8059V50.1257C32.8295 48.728 32.2737 47.3875 31.2842 46.3991C30.2947 45.4108 28.9527 44.8555 27.5534 44.8555Z" fill="#009FFA"/>
<path d="M59.2104 0C43.5121 0.0170501 28.4616 6.25372 17.3612 17.3416C6.26077 28.4295 0.0170693 43.463 0 59.1437C0.0170693 74.8243 6.26077 89.8578 17.3612 100.946C28.4616 112.034 43.5121 118.27 59.2104 118.287V104.233C47.2422 104.221 35.7677 99.4665 27.3049 91.0132C18.8421 82.5599 14.0822 71.0984 14.0698 59.1437C14.0822 47.1889 18.8421 35.7274 27.3049 27.2741C35.7677 18.8208 47.2422 14.0663 59.2104 14.0539C71.1781 14.0679 82.6517 18.8229 91.1142 27.2758C99.5767 35.7288 104.337 47.1894 104.351 59.1437C104.351 78.0814 94.9711 94.5362 76.5163 108.046C71.0663 111.992 65.2724 115.441 59.2045 118.352V133.782C68.1324 130.029 76.6083 125.284 84.4716 119.634C106.678 103.525 118.415 82.6079 118.415 59.1437C118.396 43.4645 112.153 28.4328 101.054 17.3454C89.9554 6.25801 74.9072 0.0201461 59.2104 0Z" fill="#009FFA"/>
<path d="M147.341 83.5084C153.057 93.4842 163.369 99.8732 175.923 99.8732C190.719 99.8732 201.815 91.2424 201.815 77.6799C201.815 67.7041 195.987 61.5393 183.545 56.047L175.139 52.3481C168.862 49.5459 166.508 47.7525 166.508 43.8294C166.508 39.2339 170.431 36.6558 175.699 36.6558C181.303 36.6558 186.011 39.458 189.822 45.1745L200.134 37.2163C195.538 28.6976 187.02 23.2053 175.699 23.2053C161.688 23.2053 151.152 31.4998 151.152 44.1657C151.152 54.0294 157.765 60.4184 169.086 65.4623L177.044 69.0491C184.106 72.2997 186.459 73.8689 186.459 78.2403C186.459 83.2842 182.536 86.4227 175.923 86.4227C167.853 86.4227 162.585 82.2754 157.765 75.6623L147.341 83.5084Z" fill="white"/>
<path d="M269.359 70.7304C269.359 54.1415 257.926 41.8119 242.458 41.8119C234.836 41.8119 228.335 44.7261 224.636 49.9942V43.0448H210.737V118.704H225.869V93.1479C229.904 97.5193 235.732 99.8732 242.458 99.8732C257.926 99.8732 269.359 87.3194 269.359 70.7304ZM254.003 70.8425C254.003 79.9216 247.726 86.0864 239.655 86.0864C231.921 86.0864 225.644 80.5941 225.644 70.7304C225.644 60.7547 232.033 55.4865 239.655 55.4865C247.838 55.4865 254.003 61.5393 254.003 70.8425Z" fill="white"/>
<path d="M328.867 75.8865C329.539 73.0843 329.875 70.2821 329.875 67.592C329.875 53.1327 319.115 41.8119 303.759 41.8119C287.73 41.4756 274.392 54.814 274.728 70.8425C274.392 86.871 287.955 100.209 305.104 99.8732C313.286 99.8732 320.684 97.071 327.297 91.5787L321.02 81.2667C316.201 84.9655 311.045 86.871 305.552 86.871C297.482 86.871 291.766 82.948 289.972 75.8865H328.867ZM289.972 65.2381C291.653 58.4008 296.81 54.0294 303.199 54.0294C309.812 54.0294 315.08 58.4008 315.192 65.2381H289.972Z" fill="white"/>
<path d="M389.319 75.8865C389.992 73.0843 390.328 70.2821 390.328 67.592C390.328 53.1327 379.568 41.8119 364.212 41.8119C348.183 41.4756 334.845 54.814 335.181 70.8425C334.845 86.871 348.407 100.209 365.557 99.8732C373.739 99.8732 381.137 97.071 387.75 91.5787L381.473 81.2667C376.653 84.9655 371.497 86.871 366.005 86.871C357.935 86.871 352.218 82.948 350.425 75.8865H389.319ZM350.425 65.2381C352.106 58.4008 357.262 54.0294 363.651 54.0294C370.264 54.0294 375.533 58.4008 375.645 65.2381H350.425Z" fill="white"/>
<path d="M395.634 70.7304C395.41 86.7589 409.084 100.209 425.337 99.8732C436.097 99.8732 444.616 94.6051 449.436 86.0864L438.9 78.0161C435.313 83.0601 431.278 85.9743 425.561 85.9743C417.043 85.9743 410.99 79.5853 410.99 70.7304C410.99 62.0997 417.043 55.5986 425.561 55.5986C431.39 55.5986 435.425 58.625 438.9 63.6689L449.436 55.4865C444.616 46.9679 436.21 41.8119 425.337 41.8119C408.86 41.8119 395.634 54.4778 395.634 70.7304Z" fill="white"/>
<path d="M508.255 64.1173C508.255 50.6668 500.184 41.8119 487.631 41.8119C481.466 41.8119 476.086 44.0536 472.387 47.7525V14.4625H457.255V98.5281H472.387V66.2469C472.387 59.8579 476.758 55.4865 482.923 55.4865C489.088 55.4865 493.235 59.8579 493.235 66.2469V98.5281H508.255V64.1173Z" fill="white"/>
<path d="M519.459 98.5281H534.591V14.4625H519.459V98.5281Z" fill="white"/>
<path d="M584.084 43.0448L569.624 79.4733L556.062 43.0448H540.033L561.33 95.1655L559.648 98.9765C557.07 104.805 553.484 106.486 548.104 106.486C547.207 106.486 545.077 106.374 541.602 106.038V118.704C544.965 119.601 548.216 120.049 551.354 120.049C561.666 120.049 568.391 114.893 573.435 103.348L600 43.0448H584.084Z" fill="white"/>
</svg>
