<svg width="362" height="32" viewBox="0 0 362 32" fill="none" xmlns="http://www.w3.org/2000/svg"><path d="M21.976 13.754c-.323-.388-.635-.206-.91-.203-2.183.027-4.37.118-6.527-.322-1.645-.338-3.13-1.01-4.327-2.236-.197-.203-.59-.383-.45-.702.12-.277.525-.214.816-.243 2.767-.259 5.539-.478 8.303-.774a71.277 71.277 0 0 0 8.05-1.296c2.71-.608 4.928-2.093 7.099-3.73 2.084-1.572 4.186-3.139 6.74-3.886a8.03 8.03 0 0 1 4.77 0c.18.058.482.038.459.318 0 .128-.22.264-.36.362C39.48 5.057 33.743 9.68 27.66 13.805c-3.28 2.225-6.598 4.388-10.34 5.762-1.424.523-2.886.795-4.4.436-.202-.05-.471-.07-.54-.282-.068-.212.193-.348.36-.47 1.997-1.484 3.998-2.967 6.001-4.449a2.968 2.968 0 0 1 1.077-.437c.7-.194 1.395-.398 2.158-.61Z" fill="#0F1923"/><path d="M.087 10.092c2.016 11.169 11.152 17.664 20.53 17.477 9.17-.181 17.83-6.709 19.692-17.212.753 4.433-1.227 11.927-7.001 16.818-6.452 5.465-15.619 6.383-22.913 2.265C2.84 25.177-.605 17.005.087 10.092ZM78.993 4.248c2.496 0 4.619.64 6.368 1.92 1.75 1.259 2.987 2.965 3.712 5.12H87.57a8.625 8.625 0 0 0-3.2-4.128c-1.493-1.045-3.285-1.568-5.376-1.568-1.75 0-3.338.416-4.768 1.248-1.408.81-2.528 1.984-3.36 3.52-.81 1.536-1.216 3.328-1.216 5.376 0 2.09.406 3.904 1.216 5.44.832 1.536 1.963 2.72 3.392 3.552 1.45.81 3.061 1.216 4.832 1.216 1.686 0 3.222-.384 4.608-1.152 1.408-.768 2.528-1.867 3.36-3.296.853-1.43 1.323-3.115 1.408-5.056h-9.984v-1.12h11.264v1.088c-.064 2.07-.555 3.936-1.472 5.6a10.06 10.06 0 0 1-3.808 3.872c-1.6.917-3.424 1.376-5.472 1.376-2.09 0-3.968-.49-5.632-1.472-1.642-.981-2.922-2.347-3.84-4.096-.917-1.75-1.376-3.733-1.376-5.952s.459-4.203 1.376-5.952c.918-1.75 2.198-3.104 3.84-4.064 1.664-.981 3.541-1.472 5.632-1.472Zm29.38 21.568h8.416V27h-9.856V4.44h1.44v21.376Zm34.533-21.632c2.091 0 3.968.49 5.632 1.472 1.664.981 2.966 2.347 3.904 4.096.96 1.75 1.44 3.733 1.44 5.952s-.48 4.213-1.44 5.984c-.938 1.75-2.24 3.115-3.904 4.096-1.664.981-3.541 1.472-5.632 1.472-2.09 0-3.968-.49-5.632-1.472-1.664-.981-2.976-2.347-3.936-4.096-.938-1.77-1.408-3.765-1.408-5.984s.47-4.203 1.408-5.952c.96-1.75 2.272-3.115 3.936-4.096 1.664-.981 3.542-1.472 5.632-1.472Zm0 2.08c-1.642 0-3.125.384-4.448 1.152-1.301.768-2.336 1.867-3.104 3.296-.746 1.43-1.12 3.093-1.12 4.992s.374 3.563 1.12 4.992c.768 1.43 1.803 2.528 3.104 3.296 1.323.768 2.806 1.152 4.448 1.152 1.643 0 3.115-.384 4.416-1.152 1.323-.768 2.358-1.867 3.104-3.296.768-1.43 1.152-3.093 1.152-4.992s-.384-3.563-1.152-4.992c-.746-1.43-1.781-2.528-3.104-3.296-1.301-.768-2.773-1.152-4.416-1.152Zm38.785 9.056c1.387.299 2.507.96 3.36 1.984.875 1.024 1.312 2.23 1.312 3.616 0 1.835-.629 3.307-1.888 4.416-1.237 1.11-3.04 1.664-5.408 1.664h-8.384V4.44h8.256c2.261 0 3.979.501 5.152 1.504 1.173 1.003 1.76 2.379 1.76 4.128 0 1.45-.395 2.624-1.184 3.52-.768.896-1.76 1.472-2.976 1.728Zm-8.096-.992h4.864c1.429 0 2.517-.33 3.264-.992.768-.661 1.152-1.59 1.152-2.784 0-1.152-.373-2.059-1.12-2.72-.747-.661-1.888-.992-3.424-.992h-4.736v7.488Zm4.928 10.24c1.536 0 2.72-.352 3.552-1.056.853-.704 1.28-1.696 1.28-2.976 0-1.259-.437-2.24-1.312-2.944-.853-.725-2.048-1.088-3.584-1.088h-4.864v8.064h4.928Zm37.616-2.464h-9.536L204.875 27h-3.904l8.32-22.24h4.192L221.771 27h-3.904l-1.728-4.896Zm-1.024-2.816-3.744-10.56-3.744 10.56h7.488Zm26.517 4.256h7.584V27H237.12V4.408h4.512v19.136Zm57.535-1.088h-9.056l-1.6 4.544h-4.768l8.32-22.336h5.152L305.503 27h-4.768l-1.568-4.544Zm-1.216-3.424-3.328-9.536-3.328 9.536h6.656Zm28.1-14.656V27h-5.472V4.376h5.472ZM353.989 27l-4.576-8.352h-.64V27h-6.304V4.344h9.952c1.813 0 3.349.32 4.608.96 1.28.619 2.24 1.483 2.88 2.592.64 1.11.96 2.357.96 3.744 0 1.579-.438 2.955-1.312 4.128-.875 1.152-2.134 1.963-3.776 2.432l5.152 8.8h-6.944Zm-5.216-12.576h3.104c1.749 0 2.624-.79 2.624-2.368 0-.747-.224-1.333-.672-1.76-.427-.427-1.078-.64-1.952-.64h-3.104v4.768Z" fill="#0F1923"/></svg>